<svg xmlns="http://www.w3.org/2000/svg" viewBox="0 0 333.23 347.73"><defs><style>.cls-1{fill:#383535;}.cls-2{fill:#fff;}.cls-3{fill:#f2f2f3;}</style></defs><g id="Layer_2" data-name="Layer 2"><g id="Layer_1-2" data-name="Layer 1"><path class="cls-1" d="M184.61,43.6c-3.2-35.54,26.54-54.32,52-37.17-4.7-1-10.32,2.89-9,4.4,32.58,1.27,31.11,49.11,15.85,61.34C220.67,70.67,194.59,56.91,184.61,43.6Z"/><path class="cls-2" d="M34.35,279.17C49,348.82,138.06,355.06,157.92,342.56,197.13,311,231.17,300.1,251,295.7c-1-7.73,58.4-112,66.23-110.44.49-5.09-4-26.32-17.41-33,16.72-29.15-5.38-68.68-26.42-60.65-15.84-6.26-19.55-10.25-29.05-19.37-34.24-32.19-76.6-33.95-90-24.46-10.66-5-30.33-7.14-38.64-1.57C100,57.49,55.28,67.57,46.67,95c-5,2.74-11.54,7.14-15.65,11.35,3.82-2,6.6-2.68,9.78-2.45-12.52,7.54-27.49,27.69-36.29,50.19,3.52-5,6.16-7.24,10.27-7C4.31,157.57-2.53,180.36.89,217.64c.78-4.7,2-11.55,4-13.7C13.51,239.84,14.88,247.67,34.35,279.17Z"/><path class="cls-1" d="M255.6,138c7.78,17.74,18.11-58.73,35.72-11.86a.4.4,0,0,1-.61.46c-5.07-3.62-11.26-1.51-9.32,3.65,4.55,5.65,5.08,22.24-4.87,35.78a.51.51,0,0,1-.3.17c-13.21,1.38-19.05-1.9-23.05-7.62a.44.44,0,0,1-.07-.19c-.47-4.42-1.54-12.29,1.75-20.39A.41.41,0,0,1,255.6,138Z"/><path class="cls-3" d="M114.82,245.54c-2.48-16.65,1.06-32.31,7.17-41a17.92,17.92,0,0,1,6.74-5.75c17.3-8.61,52.45-5.11,64.77.61a12.15,12.15,0,0,0,1.9.72c2.95.79,4,.3,6.88-1.44,10.17-7.31,21.78-26,35.74-36.53,17.27-12.89,53.74,11.09,64.17,23.35-.78,10.18-4.17,25.7,20.61,36.78,6.39,33.4-4.34,43.59-8.48,50.48-2.38,1.7-9.78,3.28-15.65.65-8.13,32.14-39.87,26.75-49,20.85a17.65,17.65,0,0,0-3.53-1.83c-14.56-5.2-51.5-3.39-71.85,4.81-.28.12-.56.25-.83.39-24.83,12.63-38.22,5.8-45.15-5.86a9,9,0,0,1-1.2-3.59c-2.07-18.22-6-30-11.43-40.13A7.38,7.38,0,0,1,114.82,245.54Z"/><path class="cls-1" d="M319.39,186c-13.57-2-34.88-.5-47,6a16.05,16.05,0,0,0-8.16,17.25c2.07,10.38,6.75,17.62,16.57,23.69a15,15,0,0,0,6,2.14c19.58,2.49,40.07-9.41,45.38-27.58l.07-.16A16.1,16.1,0,0,0,319.39,186Z"/><path class="cls-1" d="M235.66,143.07c1.09,6.36-2.9,17.56-16,17.34a.46.46,0,0,0-.4.22c-3.59,6-11,11-20,13a.47.47,0,0,1-.33,0c-12-6.23-24-12.06-35.87-13.57a.47.47,0,0,1-.4-.42c-.93-10-.59-15.43,7.15-21.83a.42.42,0,0,0,.16-.25c1.65-6.69-8.86-10.5-14.72-10.13a.46.46,0,0,1-.41-.73c24.2-35.37,50.82,44.37,80,16.12A.46.46,0,0,1,235.66,143.07Z"/><path class="cls-1" d="M124.37,60.94c-21,15.21-61,19.45-78.17,34.1a.29.29,0,0,1-.37,0c-4-2.89-13.19-8.11-13-23.34-.11-2-3.47,1.9-5.26,4.78a.32.32,0,0,1-.58-.14c-1.53-17.44,3.9-31.85,12.1-36,2.29-2.27-2.69-3.91-6.71-2.13a.31.31,0,0,1-.41-.4c8.09-17.94,64-42,85.9,15.64a10.76,10.76,0,0,0,6.43,6.95A.32.32,0,0,1,124.37,60.94Z"/></g></g></svg>